<svg width="200" height="200" viewBox="0 0 200 200" fill="none" xmlns="http://www.w3.org/2000/svg">
<path d="M40.7235 107.747C45.6734 106.022 51.0003 106.34 56.1408 106.534C55.0005 107.565 53.4618 107.891 52.1514 108.629C46.8632 111.473 43.392 117.335 43.3976 123.388C43.3976 134.762 43.332 146.135 43.4357 157.504C48.0855 157.973 52.7522 157.465 57.4076 157.537C64.3275 157.548 71.2475 157.537 78.1681 157.548C83.7782 157.581 89.2358 154.445 92.205 149.653C93.0777 148.225 93.6618 146.643 94.5458 145.22C94.7315 150.464 95.2392 155.983 93.1541 160.944C90.0054 169.286 81.573 175.196 72.7431 175.323C63.2847 175.328 53.8269 175.317 44.3692 175.323C38.5402 175.527 32.7006 175.499 26.8667 175.412C25.8351 175.532 25.5187 174.342 25.6438 173.543C25.655 157.553 25.6494 141.559 25.6438 125.571C25.6275 121.475 27.6307 117.665 30.2667 114.665C33.0883 111.507 36.734 109.103 40.7235 107.747ZM145.82 105.596C151.55 104.957 157.734 104.957 163 107.675C170.461 111.32 175.515 119.396 175.597 127.765C175.58 143.186 175.635 158.612 175.569 174.032C175.749 174.827 174.903 175.163 174.265 175.163C157.876 175.289 141.492 175.091 125.108 175.025C121.108 174.749 117.561 172.439 114.728 169.715C110.253 165.212 107.53 158.971 107.388 152.576C107.382 149.829 107.272 147.078 107.518 144.344C108.692 145.888 109.084 147.856 110.188 149.444C113.146 154.124 118.488 157.184 124.011 157.14C135.33 157.107 146.65 157.173 157.969 157.102C158.034 145.485 157.974 133.868 158.006 122.246C158.017 116.954 155.431 111.722 151.19 108.596C149.558 107.322 147.589 106.633 145.82 105.596ZM25.6438 27.4568C25.5237 26.6408 25.8238 25.411 26.8829 25.5437C32.5262 25.4609 38.1745 25.4331 43.8177 25.6372C53.4449 25.6428 63.0777 25.6315 72.7105 25.6372C80.7003 25.7534 88.3899 30.5662 92.1012 37.7058C93.8093 40.9807 94.7809 44.6636 94.699 48.3743C94.6227 50.8053 94.9391 53.2812 94.3495 55.663C92.1499 49.1625 86.3103 43.8697 79.3685 43.456C70.7949 43.3511 62.2155 43.4616 53.6362 43.4067C50.2413 43.2911 46.8307 43.1143 43.4414 43.4509C43.332 54.8356 43.3976 66.2259 43.4032 77.6162C43.4139 83.24 46.4049 88.6927 51.0984 91.7086C52.6696 92.8385 54.6566 93.1859 56.1684 94.4099C49.9793 94.7516 43.4139 94.9285 37.7437 91.9789C31.6421 88.9024 26.0858 83.1131 25.6663 75.9242C25.6275 59.7703 25.6663 43.6107 25.6438 27.4568ZM108.217 39.6575C111.59 31.1618 120.393 25.334 129.442 25.4938C144.799 25.5873 160.168 25.3283 175.515 25.6264C175.711 42.0285 175.531 58.4414 175.608 74.8435C175.782 79.1656 173.686 83.2343 170.865 86.3551C166.444 91.2235 160.048 94.2501 153.488 94.4042C150.677 94.3935 147.856 94.5641 145.056 94.2173C146.878 93.1638 148.936 92.541 150.65 91.2892C155.234 88.1634 157.98 82.6009 157.864 77.032C157.826 65.8015 157.925 54.5709 157.81 43.3404C146.365 43.197 134.921 43.3183 123.477 43.274C117.953 43.2305 112.485 46.0588 109.39 50.6948C108.294 52.1727 107.928 54.0859 106.657 55.4419C106.52 50.1655 106.056 44.6251 108.217 39.6575Z" fill="white"/>
<path d="M64.0217 52.691C67.2635 52.0846 70.6091 52.4099 73.889 52.4762C84.5585 53.1596 93.9618 62.4164 94.622 73.2446C94.7639 80.2687 94.6771 87.3035 94.6602 94.3325C88.7718 94.4873 82.8779 94.4318 76.9945 94.3654C76.8908 86.0081 76.9832 77.6494 76.9451 69.2971C76.9345 63.9543 74.2654 58.6893 69.9214 55.6349C68.142 54.2952 66.0025 53.6282 64.0217 52.691Z" fill="#D3302F"/>
<path d="M146.808 65.8511C147.135 65.0078 147.534 64.1918 148.025 63.4307C148.293 69.2585 148.642 75.4053 146.181 80.8529C142.791 88.7201 134.741 94.3825 126.189 94.421C119.656 94.3654 113.124 94.5202 106.597 94.3326C106.552 88.4113 106.492 82.49 106.629 76.5687C113.156 76.4038 119.694 76.5415 126.227 76.4974C129.119 76.4424 132.045 76.7234 134.899 76.1057C140.221 74.9644 144.87 70.9955 146.808 65.8511Z" fill="#F8A925"/>
<path d="M55.6717 118.79C59.3335 111.391 67.2307 106.434 75.4174 106.418C81.7478 106.457 88.0894 106.286 94.4148 106.501C94.8518 107.256 94.628 108.188 94.7043 109.025C94.6443 114.119 94.753 119.215 94.6387 124.303C85.683 124.409 76.721 124.144 67.771 124.545C62.9299 125.097 58.4439 128.052 55.8574 132.198C54.8038 133.852 54.2418 135.754 53.3027 137.474C52.8062 131.211 52.6593 124.49 55.6717 118.79Z" fill="#66BB6A"/>
<path d="M106.28 108.479C106.372 107.812 106.066 106.396 107.131 106.456C112.736 106.351 118.347 106.407 123.957 106.44C124.453 115.327 123.962 124.258 124.203 133.157C124.568 137.866 127.144 142.255 130.877 145.054C132.727 146.521 134.992 147.227 137.071 148.264C133.29 148.534 129.458 148.605 125.681 148.219C117.735 147.112 110.608 141.394 107.803 133.791C106.569 130.665 106.269 127.269 106.28 123.928C106.291 118.778 106.28 113.629 106.28 108.479Z" fill="#37A3FF"/>
</svg>
