<svg width="200" height="200" viewBox="0 0 200 200" fill="none" xmlns="http://www.w3.org/2000/svg">
<path d="M183.112 100L126.398 50.2374C114.513 39.7411 99.235 33.6474 82.2535 33.6474C45.5779 33.6474 15.6948 63.4379 15.6948 100C15.6948 136.562 45.5779 166.353 82.2535 166.353C99.2313 166.353 114.517 159.924 126.398 149.766L183.115 100H183.112ZM35.7289 100C35.7289 74.6121 56.4431 53.6232 82.2535 53.6232C107.72 53.6232 128.778 74.2732 128.778 100C128.778 125.392 108.06 146.384 82.2498 146.384C76.135 146.402 70.0771 145.214 64.4246 142.89C58.7721 140.565 53.6362 137.149 49.313 132.838C44.9898 128.527 41.5643 123.407 39.2336 117.771C36.9029 112.135 35.7094 106.096 35.7289 100Z" fill="#E5173F"/>
</svg>
