<svg width="72" height="72" viewBox="0 0 72 72" fill="none" xmlns="http://www.w3.org/2000/svg">
<path fill-rule="evenodd" clip-rule="evenodd" d="M15.52 61.92H56.12C59.3232 61.92 61.92 59.3232 61.92 56.12V15.52C61.92 12.3167 59.3232 9.71997 56.12 9.71997H15.52C12.3167 9.71997 9.72 12.3167 9.72 15.52V56.12C9.72 59.3232 12.3167 61.92 15.52 61.92Z" fill="#0A66C2" style="fill:#0A66C2;fill:color(display-p3 0.0392 0.4000 0.7608);fill-opacity:1;"/>
<path fill-rule="evenodd" clip-rule="evenodd" d="M54.67 54.67H46.9238V41.4765C46.9238 37.8592 45.5493 35.8378 42.6863 35.8378C39.5716 35.8378 37.9443 37.9414 37.9443 41.4765V54.67H30.4792V29.5366H37.9443V32.9221C37.9443 32.9221 40.1889 28.7688 45.5224 28.7688C50.8534 28.7688 54.67 32.0242 54.67 38.7571V54.67ZM21.5733 26.2456C19.0305 26.2456 16.97 24.169 16.97 21.6078C16.97 19.0466 19.0305 16.97 21.5733 16.97C24.1161 16.97 26.1753 19.0466 26.1753 21.6078C26.1753 24.169 24.1161 26.2456 21.5733 26.2456ZM17.7186 54.67H25.5028V29.5366H17.7186V54.67Z" fill="white" style="fill:white;fill-opacity:1;"/>
</svg>
